<svg xmlns="http://www.w3.org/2000/svg" version="1.1" xmlns:xlink="http://www.w3.org/1999/xlink" width="512" height="512" x="0" y="0" viewBox="0 0 64 64" style="enable-background:new 0 0 512 512" xml:space="preserve" class=""><g><g data-name="Layer 7"><path d="M50.5 13.5a26.15 26.15 0 1 0 0 37 26.19 26.19 0 0 0 0-37zm-2.83 34.17a22.16 22.16 0 1 1 0-31.35 22.19 22.19 0 0 1 0 31.35z" fill="#fefefe" opacity="1" data-original="#000000" class=""></path><path d="M41.06 22.94a2 2 0 0 0-2.83 0L32 29.17l-6.23-6.23a2 2 0 0 0-2.83 2.83L29.17 32l-6.23 6.23a2 2 0 1 0 2.83 2.83L32 34.83l6.23 6.23a2 2 0 0 0 2.83-2.83L34.83 32l6.23-6.23a2 2 0 0 0 0-2.83z" fill="#fefefe" opacity="1" data-original="#000000" class=""></path></g></g></svg>