<svg xmlns="http://www.w3.org/2000/svg" version="1.1" xmlns:xlink="http://www.w3.org/1999/xlink" width="512" height="512" x="0" y="0" viewBox="0 0 512 512" style="enable-background:new 0 0 512 512" xml:space="preserve" class=""><g><circle cx="228.358" cy="256" r="228.358" fill="#f9efaf" opacity="1" data-original="#f9efaf" class=""></circle><path fill="#f6e781" d="M309.235 42.378c63.873 40.484 106.274 111.8 106.274 193.019 0 126.119-102.239 228.358-228.358 228.358-28.477 0-55.737-5.213-80.877-14.736 35.311 22.381 77.184 35.34 122.084 35.34 126.119 0 228.358-102.239 228.358-228.358.001-97.643-61.281-180.971-147.481-213.623z" opacity="1" data-original="#f6e781" class=""></path><circle cx="228.358" cy="256" r="185.376" fill="#f6e266" opacity="1" data-original="#f6e266" class=""></circle><path fill="#f1d333" d="M289.919 81.091c49.803 33.235 82.608 89.939 82.608 154.305 0 102.38-82.996 185.376-185.376 185.376-21.58 0-42.299-3.688-61.561-10.467 29.413 19.628 64.754 31.071 102.768 31.071 102.38 0 185.376-82.996 185.376-185.376 0-80.8-51.695-149.526-123.815-174.909z" opacity="1" data-original="#f1d333" class=""></path><path fill="#f1d333" d="M283.642 27.642C409.761 27.642 512 129.881 512 256S409.761 484.358 283.642 484.358h-55.283c126.119 0 228.358-102.239 228.358-228.358S354.477 27.642 228.358 27.642z" opacity="1" data-original="#f1d333" class=""></path><path fill="#f9efaf" d="M265.057 329.568h-10.216V155.949c0-14.626-11.857-26.483-26.483-26.483-13.632 0-24.857 10.299-26.321 23.54h-9.2c-14.626 0-26.483 11.857-26.483 26.483s11.857 26.483 26.483 26.483h9.039v123.596H191.66c-14.626 0-26.483 11.857-26.483 26.483s11.857 26.483 26.483 26.483h73.397c14.626 0 26.483-11.857 26.483-26.483s-11.858-26.483-26.483-26.483z" opacity="1" data-original="#f9efaf" class=""></path><path fill="#ecc32e" d="M427.677 144.473h55.283a227.48 227.48 0 0 1 7.907 15.453h-55.283a227.938 227.938 0 0 0-7.907-15.453zm22.482 56.971h55.283a226.344 226.344 0 0 0-4.374-15.453h-55.283a226.918 226.918 0 0 1 4.374 15.453zm4.797 26.065a229.658 229.658 0 0 1 1.394 15.453h55.283a229.717 229.717 0 0 0-1.394-15.453zm56.678 41.529H456.35a229.717 229.717 0 0 1-1.394 15.453h55.283a229.006 229.006 0 0 0 1.395-15.453zm-101.007-150.63h55.283a229.532 229.532 0 0 0-12.782-15.453h-55.283a229.783 229.783 0 0 1 12.782 15.453zm24.956 233.666a227.48 227.48 0 0 1-7.907 15.453h55.283a227.48 227.48 0 0 0 7.907-15.453zm14.576-41.518a226.344 226.344 0 0 1-4.374 15.453h55.283a226.918 226.918 0 0 0 4.374-15.453zM370.032 76.89h55.283a228.96 228.96 0 0 0-22.059-15.453h-55.283a229.262 229.262 0 0 1 22.059 15.453zm40.595 316.702a229.532 229.532 0 0 1-12.782 15.453h55.283a229.585 229.585 0 0 0 12.782-15.453zm14.688 41.518h-55.283a228.96 228.96 0 0 1-22.059 15.453h55.283a229.137 229.137 0 0 0 22.059-15.453z" opacity="1" data-original="#ecc32e"></path></g></svg>