<svg xmlns="http://www.w3.org/2000/svg" version="1.1" xmlns:xlink="http://www.w3.org/1999/xlink" width="512" height="512" x="0" y="0" viewBox="0 0 64 64" style="enable-background:new 0 0 512 512" xml:space="preserve" class=""><g><g data-name="Layer 39"><path d="M50.5 13.5a26.15 26.15 0 1 0 0 37 26.2 26.2 0 0 0 0-37zm-2.83 34.17a22.16 22.16 0 1 1 0-31.35 22.19 22.19 0 0 1 0 31.35z" fill="#fafafa" opacity="1" data-original="#000000"></path><path d="M32 23a2 2 0 0 0-2 2v21.33a2 2 0 0 0 4 0V25a2 2 0 0 0-2-2zM32 15.42a2 2 0 1 0 2 2 2 2 0 0 0-2-2z" fill="#fafafa" opacity="1" data-original="#000000"></path></g></g></svg>