<svg xmlns="http://www.w3.org/2000/svg" version="1.1" xmlns:xlink="http://www.w3.org/1999/xlink" width="512" height="512" x="0" y="0" viewBox="0 0 48 48" style="enable-background:new 0 0 512 512" xml:space="preserve" class=""><g><path d="M25 7.03a1 1 0 0 0-1-1c-5.514 0-10 4.486-10 10a1 1 0 1 0 2 0c0-4.411 3.589-8 8-8a1 1 0 0 0 1-1z" fill="#fafafa" opacity="1" data-original="#000000" class=""></path><path d="M22.246 45.79h3.508a3.005 3.005 0 0 0 3-3v-1.099a3 3 0 0 0 1.755-2.721v-3.72c.176-.382.281-.802.281-1.25 0-1.016.226-2 .671-2.927a7.325 7.325 0 0 1 1.864-2.409c3.746-3.165 5.709-7.989 5.25-12.909-.7-7.375-6.813-13.189-14.265-13.525L24 2.22l-.354.011c-7.408.335-13.521 6.149-14.222 13.526-.458 4.917 1.505 9.742 5.251 12.906a7.339 7.339 0 0 1 1.864 2.41c.445.927.671 1.911.671 2.927 0 .447.105.868.281 1.25v3.721c0 1.209.722 2.247 1.755 2.721v1.1a3.005 3.005 0 0 0 3 2.998zm4.508-3c0 .552-.449 1-1 1h-3.508c-.551 0-1-.449-1-1v-.82h5.508zm1.755-3.819c0 .551-.448 1-1 1h-7.018c-.552 0-1-.449-1-1v-2.068c.232.058.47.097.719.097h7.58c.249 0 .487-.039.719-.097zM19.21 34a8.69 8.69 0 0 0-.868-3.793 9.369 9.369 0 0 0-2.376-3.071c-3.247-2.742-4.948-6.926-4.551-11.191.607-6.389 5.903-11.426 12.275-11.715l.31-.01.265.009c6.417.29 11.713 5.327 12.319 11.714.398 4.267-1.303 8.451-4.55 11.193a9.369 9.369 0 0 0-2.376 3.071A8.69 8.69 0 0 0 28.79 34c0 .551-.448 1-1 1h-7.58c-.552 0-1-.449-1-1z" fill="#fafafa" opacity="1" data-original="#000000" class=""></path></g></svg>