<svg xmlns="http://www.w3.org/2000/svg" version="1.1" xmlns:xlink="http://www.w3.org/1999/xlink" width="512" height="512" x="0" y="0" viewBox="0 0 512 512" style="enable-background:new 0 0 512 512" xml:space="preserve" class=""><g><path fill="#1b1f3b" d="M506.81 148.08c6.92 71.78 6.92 144.06 0 215.83-7.3 75.72-66.46 135.58-141.12 142.8-72.95 7.05-146.41 7.05-219.36 0C71.66 499.5 12.5 439.64 5.19 363.92c-6.92-71.78-6.92-144.06 0-215.83C12.5 72.36 71.66 12.5 146.32 5.29c72.95-7.05 146.41-7.05 219.36 0 74.66 7.21 133.82 67.07 141.13 142.79z" opacity="1" data-original="#e01312" class=""></path><path fill="#ffffff" d="M264.48 423.5c-7.25 0-14.7-.4-22.04-1.21-19.46-2.14-47.69-8.23-71.73-25.08-26.17-18.34-41.43-45.26-44.14-77.83-1.26-15.14 9.99-28.43 25.12-29.69s28.43 9.99 29.69 25.12c1.37 16.45 8.01 28.32 20.9 37.36 25.43 17.83 68.59 18.53 85.61 13.91 26.17-7.1 44.81-30.05 42.44-52.25-2.39-22.36-54.57-34.12-92.67-42.7-22.06-4.97-42.89-9.66-58.83-16.66-18.52-8.14-32.8-21.52-41.31-38.7-8.01-16.17-10.25-34.98-6.3-52.96 4.7-21.43 17.75-40.52 36.75-53.78 19.97-13.93 45.92-21.02 75.04-20.5 68.81 1.23 118.58 28.54 140.13 76.89 6.18 13.87-.05 30.13-13.92 36.31-13.87 6.19-30.13-.05-36.31-13.92-15.85-35.55-58.17-43.71-90.88-44.3-36.96-.65-53.85 16.33-57.09 31.08-2.17 9.92.89 22.88 16.02 29.52 11.08 4.87 29.4 8.99 48.79 13.36 26 5.85 55.46 12.49 79.73 23.7 33.79 15.61 52.48 38.09 55.54 66.82 5.25 49.16-30.32 96.95-82.73 111.17-10.51 2.86-23.8 4.34-37.81 4.34z" opacity="1" data-original="#ffffff"></path></g></svg>